<svg version="1.1" id="Layer_1" xmlns="http://www.w3.org/2000/svg" xmlns:xlink="http://www.w3.org/1999/xlink" x="0px" y="0px"
	 width="100%" viewBox="0 0 225 225" enable-background="new 0 0 225 225" xml:space="preserve">
<path fill="#1BBCC9" opacity="1.000000" stroke="none" 
	d="
M153.000000,226.000000 
	C102.000000,226.000000 51.500008,226.000000 1.000007,226.000000 
	C1.000005,151.000000 1.000005,76.000015 1.000002,1.000017 
	C75.999992,1.000011 150.999985,1.000011 225.999969,1.000006 
	C225.999985,75.999985 225.999985,150.999969 226.000000,225.999969 
	C201.833328,226.000000 177.666672,226.000000 153.000000,226.000000 
M130.892181,182.357178 
	C147.109955,173.156998 163.410339,164.096313 179.452194,154.598969 
	C181.732437,153.248962 184.110748,149.800232 184.151428,147.285797 
	C184.515121,124.802170 184.478439,102.308784 184.195877,79.822853 
	C184.166336,77.471443 182.349030,74.353859 180.388397,72.970863 
	C175.513779,69.532394 170.229340,66.554604 164.792542,64.091362 
	C162.549973,63.075325 158.937866,62.842178 156.895950,63.969227 
	C136.200974,75.391960 115.700500,87.167168 95.149780,98.851089 
	C91.700798,100.811966 92.020157,102.867683 95.181854,104.730972 
	C99.627289,107.350822 104.212448,109.738029 108.609688,112.433792 
	C111.987175,114.504364 115.062958,114.383690 118.430168,112.397202 
	C125.024330,108.506996 131.733337,104.811279 138.399918,101.044106 
	C145.576370,96.988823 152.758698,92.943939 160.176270,88.760399 
	C160.491928,89.834038 160.733170,90.273170 160.734055,90.712799 
	C160.764542,105.705551 160.875412,120.699997 160.635239,135.688766 
	C160.609131,137.318649 158.896957,139.531631 157.357422,140.431381 
	C144.136063,148.158249 130.713959,155.541809 117.500168,163.281219 
	C114.471405,165.055191 112.241463,164.854507 109.341553,163.169632 
	C96.101059,155.476822 82.785393,147.909500 69.385612,140.498016 
	C66.745956,139.038010 66.148819,137.239777 66.168266,134.501938 
	C66.266479,120.675751 66.331688,106.846756 66.129906,93.022820 
	C66.079323,89.556931 67.227310,87.693573 70.231567,86.015923 
	C90.289307,74.815155 110.249847,63.439945 130.214264,52.072735 
	C135.689651,48.955200 135.710327,47.434917 130.470459,44.386108 
	C126.586220,42.126057 122.549438,40.113358 118.764061,37.702423 
	C115.069031,35.349030 111.806076,35.640579 108.076698,37.783100 
	C88.012726,49.309826 67.884766,60.726562 47.698227,72.037308 
	C44.042160,74.085846 42.566891,76.784973 42.585129,80.899971 
	C42.681843,102.722702 42.681458,124.546318 42.584251,146.369034 
	C42.566650,150.320114 44.043888,152.918213 47.480438,154.850296 
	C67.796692,166.272522 88.082634,177.749588 108.306580,189.334229 
	C111.868607,191.374603 115.014847,191.633865 118.552055,189.414719 
	C122.355392,187.028641 126.357803,184.959869 130.892181,182.357178 
M185.860596,143.562256 
	C185.860596,122.436409 185.860596,101.310562 185.860596,80.184715 
	C185.729462,80.186012 185.598343,80.187309 185.467209,80.188606 
	C185.467209,101.425995 185.467209,122.663391 185.860596,143.562256 
M41.007568,144.285019 
	C41.095394,144.806351 41.183220,145.327682 41.271046,145.848999 
	C41.361153,145.829803 41.451256,145.810593 41.541359,145.791382 
	C41.541359,124.627144 41.541359,103.462891 41.541359,82.298645 
	C41.361198,82.299446 41.181042,82.300247 41.000881,82.301048 
	C41.000881,102.718437 41.000881,123.135818 41.007568,144.285019 
M67.106804,128.234573 
	C67.106804,130.116455 67.106804,131.998352 67.106804,133.880234 
	C67.337624,133.875916 67.568436,133.871597 67.799255,133.867264 
	C67.799255,119.941833 67.799255,106.016396 67.799255,92.090965 
	C67.568604,92.088837 67.337952,92.086716 67.107300,92.084587 
	C67.107300,103.825829 67.107300,115.567062 67.106804,128.234573 
M158.998932,100.208832 
	C158.998932,111.444824 158.998932,122.680817 158.998932,133.916809 
	C159.215927,133.915314 159.432907,133.913818 159.649902,133.912308 
	C159.649902,121.628807 159.649902,109.345291 159.649902,97.061783 
	C159.479431,97.054779 159.308960,97.047775 159.138489,97.040771 
	C159.092590,97.841393 159.046692,98.642021 158.998932,100.208832 
z"/>
<path fill="#FCFEFF" opacity="1.000000" stroke="none" 
	d="
M130.582764,182.554901 
	C126.357803,184.959869 122.355392,187.028641 118.552055,189.414719 
	C115.014847,191.633865 111.868607,191.374603 108.306580,189.334229 
	C88.082634,177.749588 67.796692,166.272522 47.480438,154.850296 
	C44.043888,152.918213 42.566650,150.320114 42.584251,146.369034 
	C42.681458,124.546318 42.681843,102.722702 42.585129,80.899971 
	C42.566891,76.784973 44.042160,74.085846 47.698227,72.037308 
	C67.884766,60.726562 88.012726,49.309826 108.076698,37.783100 
	C111.806076,35.640579 115.069031,35.349030 118.764061,37.702423 
	C122.549438,40.113358 126.586220,42.126057 130.470459,44.386108 
	C135.710327,47.434917 135.689651,48.955200 130.214264,52.072735 
	C110.249847,63.439945 90.289307,74.815155 70.231567,86.015923 
	C67.227310,87.693573 66.079323,89.556931 66.129906,93.022820 
	C66.331688,106.846756 66.266479,120.675751 66.168266,134.501938 
	C66.148819,137.239777 66.745956,139.038010 69.385612,140.498016 
	C82.785393,147.909500 96.101059,155.476822 109.341553,163.169632 
	C112.241463,164.854507 114.471405,165.055191 117.500168,163.281219 
	C130.713959,155.541809 144.136063,148.158249 157.357422,140.431381 
	C158.896957,139.531631 160.609131,137.318649 160.635239,135.688766 
	C160.875412,120.699997 160.764542,105.705551 160.734055,90.712799 
	C160.733170,90.273170 160.491928,89.834038 160.176270,88.760399 
	C152.758698,92.943939 145.576370,96.988823 138.399918,101.044106 
	C131.733337,104.811279 125.024330,108.506996 118.430168,112.397202 
	C115.062958,114.383690 111.987175,114.504364 108.609688,112.433792 
	C104.212448,109.738029 99.627289,107.350822 95.181854,104.730972 
	C92.020157,102.867683 91.700798,100.811966 95.149780,98.851089 
	C115.700500,87.167168 136.200974,75.391960 156.895950,63.969227 
	C158.937866,62.842178 162.549973,63.075325 164.792542,64.091362 
	C170.229340,66.554604 175.513779,69.532394 180.388397,72.970863 
	C182.349030,74.353859 184.166336,77.471443 184.195877,79.822853 
	C184.478439,102.308784 184.515121,124.802170 184.151428,147.285797 
	C184.110748,149.800232 181.732437,153.248962 179.452194,154.598969 
	C163.410339,164.096313 147.109955,173.156998 130.582764,182.554901 
z"/>
<path fill="#01BBC8" opacity="1.000000" stroke="none" 
	d="
M185.663910,143.731522 
	C185.467209,122.663391 185.467209,101.425995 185.467209,80.188606 
	C185.598343,80.187309 185.729462,80.186012 185.860596,80.184715 
	C185.860596,101.310562 185.860596,122.436409 185.663910,143.731522 
z"/>
<path fill="#01BBC8" opacity="1.000000" stroke="none" 
	d="
M41.004227,143.919113 
	C41.000881,123.135818 41.000881,102.718437 41.000881,82.301048 
	C41.181042,82.300247 41.361198,82.299446 41.541359,82.298645 
	C41.541359,103.462891 41.541359,124.627144 41.541359,145.791382 
	C41.451256,145.810593 41.361153,145.829803 41.271046,145.848999 
	C41.183220,145.327682 41.095394,144.806351 41.004227,143.919113 
z"/>
<path fill="#01BBC8" opacity="1.000000" stroke="none" 
	d="
M67.107056,127.771439 
	C67.107300,115.567062 67.107300,103.825829 67.107300,92.084587 
	C67.337952,92.086716 67.568604,92.088837 67.799255,92.090965 
	C67.799255,106.016396 67.799255,119.941833 67.799255,133.867264 
	C67.568436,133.871597 67.337624,133.875916 67.106804,133.880234 
	C67.106804,131.998352 67.106804,130.116455 67.107056,127.771439 
z"/>
<path fill="#01BBC8" opacity="1.000000" stroke="none" 
	d="
M158.999847,99.825745 
	C159.046692,98.642021 159.092590,97.841393 159.138489,97.040771 
	C159.308960,97.047775 159.479431,97.054779 159.649902,97.061783 
	C159.649902,109.345291 159.649902,121.628807 159.649902,133.912308 
	C159.432907,133.913818 159.215927,133.915314 158.998932,133.916809 
	C158.998932,122.680817 158.998932,111.444824 158.999847,99.825745 
z"/>
</svg>