<svg version="1.1" id="Layer_1" xmlns="http://www.w3.org/2000/svg" xmlns:xlink="http://www.w3.org/1999/xlink" x="0px" y="0px"
	 width="100%" viewBox="0 0 225 225" enable-background="new 0 0 225 225" xml:space="preserve">
<path fill="#822EF5" opacity="1.000000" stroke="none" 
	d="
M156.000000,226.000000 
	C104.000000,226.000000 52.500008,226.000000 1.000007,226.000000 
	C1.000005,151.000000 1.000005,76.000015 1.000002,1.000017 
	C75.999992,1.000011 150.999985,1.000011 225.999969,1.000006 
	C225.999985,75.999985 225.999985,150.999969 226.000000,225.999969 
	C202.833328,226.000000 179.666672,226.000000 156.000000,226.000000 
M187.795822,141.177658 
	C190.574097,120.611198 183.863907,103.921806 167.553284,91.009239 
	C166.235092,89.965668 165.298996,87.813240 165.102798,86.072662 
	C162.225266,60.543156 139.650330,40.950336 112.973343,40.993366 
	C87.253922,41.034851 64.738083,61.006382 61.889900,86.091522 
	C61.678707,87.951622 60.446102,90.157219 58.989391,91.345024 
	C38.029682,108.435745 32.591583,135.184265 45.161022,157.557892 
	C55.816322,176.524353 83.319260,191.137146 110.548676,179.514572 
	C112.229836,178.796997 114.755981,178.937683 116.489220,179.650757 
	C125.723114,183.449661 135.565460,185.152649 145.019180,183.106293 
	C167.335434,178.275711 182.293793,164.895813 187.795822,141.177658 
z"/>
<path fill="#FCFAFF" opacity="1.000000" stroke="none" 
	d="
M187.720001,141.594910 
	C182.293793,164.895813 167.335434,178.275711 145.019180,183.106293 
	C135.565460,185.152649 125.723114,183.449661 116.489220,179.650757 
	C114.755981,178.937683 112.229836,178.796997 110.548676,179.514572 
	C83.319260,191.137146 55.816322,176.524353 45.161022,157.557892 
	C32.591583,135.184265 38.029682,108.435745 58.989391,91.345024 
	C60.446102,90.157219 61.678707,87.951622 61.889900,86.091522 
	C64.738083,61.006382 87.253922,41.034851 112.973343,40.993366 
	C139.650330,40.950336 162.225266,60.543156 165.102798,86.072662 
	C165.298996,87.813240 166.235092,89.965668 167.553284,91.009239 
	C183.863907,103.921806 190.574097,120.611198 187.720001,141.594910 
M113.510971,105.309868 
	C109.884789,103.204514 103.327805,101.269783 103.193405,98.961159 
	C102.821266,92.568443 98.868736,92.686325 95.002029,92.206772 
	C91.653748,91.791512 88.164886,91.843674 84.809494,92.261765 
	C65.374084,94.683502 50.485512,110.914085 49.617359,130.409836 
	C48.736202,150.197754 62.161049,167.669525 81.670662,171.728363 
	C88.112625,173.068588 94.676445,173.399506 101.537979,170.566757 
	C100.428864,169.214310 99.776001,168.310867 99.016342,167.508545 
	C91.713852,159.795853 87.159119,150.686142 85.401672,140.240509 
	C85.096596,138.427307 84.998314,135.418442 86.003525,134.741013 
	C91.112503,131.297958 96.616226,128.440659 102.717636,124.958176 
	C102.717636,128.897079 103.043564,131.605667 102.601883,134.182693 
	C102.312347,135.872025 101.292389,138.114975 99.934906,138.807907 
	C96.621239,140.499420 97.023613,142.612518 97.962395,145.390533 
	C104.165085,163.745300 122.505402,174.932236 143.076462,171.982895 
	C158.260025,169.805984 169.192108,161.057480 174.676331,146.777344 
	C180.063171,132.750732 177.973557,119.275703 168.609314,107.255165 
	C167.796204,106.211388 166.179398,104.975380 165.160736,105.148857 
	C164.213409,105.310188 163.287292,107.135551 162.831757,108.401054 
	C159.298080,118.217880 153.515305,126.393623 145.257767,132.767410 
	C144.156158,133.617722 142.267532,134.866760 141.473862,134.469971 
	C135.871704,131.669281 130.460587,128.486496 124.606583,125.212029 
	C134.449860,118.917938 134.449860,118.917938 141.276474,121.615814 
	C154.703873,109.604752 158.506241,89.753433 149.704666,73.764771 
	C139.048828,54.407646 121.828049,49.733498 104.111740,53.042934 
	C89.015785,55.862881 74.895668,70.615875 74.541039,83.116074 
	C75.866989,82.849350 77.133789,82.620255 78.388634,82.338058 
	C89.082832,79.933022 99.499588,80.697289 109.753471,84.680641 
	C112.671013,85.814026 113.967918,87.300705 113.784370,90.520515 
	C113.519226,95.171616 113.689186,99.847527 113.510971,105.309868 
z"/>
<path fill="#822FF5" opacity="1.000000" stroke="none" 
	d="
M113.592239,104.911362 
	C113.689186,99.847527 113.519226,95.171616 113.784370,90.520515 
	C113.967918,87.300705 112.671013,85.814026 109.753471,84.680641 
	C99.499588,80.697289 89.082832,79.933022 78.388634,82.338058 
	C77.133789,82.620255 75.866989,82.849350 74.541039,83.116074 
	C74.895668,70.615875 89.015785,55.862881 104.111740,53.042934 
	C121.828049,49.733498 139.048828,54.407646 149.704666,73.764771 
	C158.506241,89.753433 154.703873,109.604752 141.276474,121.615814 
	C134.449860,118.917938 134.449860,118.917938 124.606583,125.212029 
	C130.460587,128.486496 135.871704,131.669281 141.473862,134.469971 
	C142.267532,134.866760 144.156158,133.617722 145.257767,132.767410 
	C153.515305,126.393623 159.298080,118.217880 162.831757,108.401054 
	C163.287292,107.135551 164.213409,105.310188 165.160736,105.148857 
	C166.179398,104.975380 167.796204,106.211388 168.609314,107.255165 
	C177.973557,119.275703 180.063171,132.750732 174.676331,146.777344 
	C169.192108,161.057480 158.260025,169.805984 143.076462,171.982895 
	C122.505402,174.932236 104.165085,163.745300 97.962395,145.390533 
	C97.023613,142.612518 96.621239,140.499420 99.934906,138.807907 
	C101.292389,138.114975 102.312347,135.872025 102.601883,134.182693 
	C103.043564,131.605667 102.717636,128.897079 102.717636,124.958176 
	C96.616226,128.440659 91.112503,131.297958 86.003525,134.741013 
	C84.998314,135.418442 85.096596,138.427307 85.401672,140.240509 
	C87.159119,150.686142 91.713852,159.795853 99.016342,167.508545 
	C99.776001,168.310867 100.428864,169.214310 101.537979,170.566757 
	C94.676445,173.399506 88.112625,173.068588 81.670662,171.728363 
	C62.161049,167.669525 48.736202,150.197754 49.617359,130.409836 
	C50.485512,110.914085 65.374084,94.683502 84.809494,92.261765 
	C88.164886,91.843674 91.653748,91.791512 95.002029,92.206772 
	C98.868736,92.686325 102.821266,92.568443 103.193405,98.961159 
	C103.327805,101.269783 109.884789,103.204514 113.592239,104.911362 
z"/>
</svg>